<svg version="1.1" id="Layer_1" xmlns="http://www.w3.org/2000/svg" xmlns:xlink="http://www.w3.org/1999/xlink" x="0px" y="0px"
	 width="100%" viewBox="0 0 1024 1024" enable-background="new 0 0 1024 1024" xml:space="preserve">
<path fill="#000000" opacity="1.000000" stroke="none" 
	d="
M160.676651,530.999817 
	C160.675735,516.001099 160.541382,501.500519 160.755310,487.005066 
	C160.818314,482.735809 159.712936,480.572601 155.135818,480.114014 
	C148.864166,479.485565 142.615860,478.433411 136.426346,477.213684 
	C120.638321,474.102539 112.486801,455.467102 121.188911,442.644531 
	C126.082298,435.434082 134.684921,432.695709 144.795120,435.291412 
	C148.659958,436.283691 152.462097,437.533691 156.261093,438.764099 
	C158.799316,439.586151 160.213211,438.736725 160.344376,436.130432 
	C161.127029,420.579102 173.833374,411.669922 189.640854,411.782013 
	C193.806870,411.811554 197.976593,411.671417 202.138809,411.798492 
	C207.534790,411.963196 212.769287,412.041718 216.813171,407.440765 
	C218.491837,405.530914 220.474686,405.744415 222.433273,407.647034 
	C228.459122,413.500763 235.953812,413.740326 243.509705,412.310638 
	C255.441391,410.052979 266.366760,405.011108 276.437286,398.396057 
	C291.949799,388.206360 296.719727,375.031830 292.329407,355.965424 
	C289.191254,342.336639 281.833862,330.882690 273.316895,320.105774 
	C269.311890,315.038116 266.928070,309.632202 267.931610,303.038208 
	C270.073486,288.964691 287.626831,280.926239 300.306488,288.118835 
	C307.500305,292.199554 310.652252,298.361633 311.426941,306.433502 
	C312.394226,316.512115 311.651123,326.781921 314.468628,336.659546 
	C318.602936,351.153778 326.523499,362.396454 341.974701,366.095917 
	C351.632568,368.408325 361.147675,366.143127 370.473633,363.288086 
	C375.720551,361.681854 380.969635,360.023865 386.312378,358.803375 
	C394.767578,356.871887 403.274048,358.020355 410.521545,362.281586 
	C426.376312,371.603485 441.591095,369.715820 457.130035,361.920074 
	C462.164856,359.394165 467.504364,357.494965 473.087799,356.250519 
	C483.396851,353.952820 492.540466,361.251984 493.709839,370.102448 
	C494.347870,374.931366 494.475281,379.651703 494.466431,384.440887 
	C494.460938,387.431915 494.167084,390.407593 494.761047,393.398560 
	C497.809082,408.747101 505.749359,414.599365 521.528503,413.367310 
	C529.690552,412.730011 537.786621,412.453796 544.778992,407.172394 
	C549.887451,403.313904 552.784241,397.877258 556.221313,392.805939 
	C560.831726,386.003357 566.876221,381.836090 575.344421,382.108032 
	C587.837646,382.509155 595.888062,393.782379 592.780945,406.374420 
	C590.413208,415.970062 590.475464,415.997925 600.557434,415.828491 
	C607.888428,415.705292 615.245361,416.088165 622.548401,415.604889 
	C632.492249,414.946838 640.430298,418.496948 646.996216,425.685272 
	C648.015381,426.801117 649.072327,428.368500 650.693359,427.094574 
	C657.192566,421.987030 664.988586,420.257843 672.855652,418.640533 
	C672.666321,416.108521 670.787109,414.979858 669.742737,413.372986 
	C663.294739,403.452515 663.119507,393.115906 667.489868,382.426575 
	C668.351562,380.318970 669.490967,378.431671 672.089478,378.524475 
	C674.518433,378.611267 675.608826,380.616241 676.013550,382.514496 
	C679.289307,397.877472 692.667358,400.075226 704.378601,404.419342 
	C705.218567,404.730896 706.372192,404.474915 707.305664,404.215546 
	C724.375977,399.472534 741.502380,399.457703 758.620117,403.781830 
	C762.081421,404.656189 765.056091,404.435791 768.150452,402.675812 
	C772.051941,400.456726 776.466614,399.321289 780.344055,396.950134 
	C785.299133,393.919952 788.653503,389.909546 789.890564,384.141449 
	C790.330933,382.087921 790.681152,379.495911 793.303040,379.136566 
	C795.958679,378.772583 797.397095,380.879944 798.733398,382.868195 
	C803.749329,390.331299 803.665222,403.980469 798.512268,411.312469 
	C797.276001,413.071472 795.998108,414.801147 794.782959,416.483978 
	C795.530151,418.115936 796.989075,418.360962 798.207764,418.475403 
	C811.176758,419.693329 820.001099,426.799591 825.890503,437.961609 
	C829.532532,444.864044 833.922241,451.393066 836.520325,458.826752 
	C837.367188,461.249878 837.950745,463.684875 835.837158,465.814392 
	C833.760315,467.906921 831.211975,467.597748 828.818481,466.783234 
	C826.154907,465.876831 823.595642,464.635834 821.050354,463.416595 
	C817.447144,461.690552 814.009583,459.565674 810.302490,458.121094 
	C803.193848,455.350952 800.348999,457.214417 799.070618,464.672455 
	C797.393127,474.459534 798.328552,483.846588 802.380920,492.988739 
	C805.617737,500.291199 808.445190,507.751678 808.446106,515.961182 
	C808.446472,519.654846 810.408203,521.123901 814.207458,521.026611 
	C823.534668,520.787720 832.870178,520.852295 842.202454,520.839661 
	C858.212585,520.818054 869.311462,531.798096 869.320435,547.733093 
	C869.344971,591.562378 869.192810,635.392395 869.402283,679.220703 
	C869.486755,696.904724 857.952881,705.532776 843.150940,705.496704 
	C719.163330,705.195312 595.174683,705.312195 471.186340,705.318787 
	C462.220184,705.319275 461.066956,706.283386 459.007416,715.027466 
	C458.130676,718.749695 457.527679,722.549744 456.432037,726.204041 
	C454.473022,732.737854 449.936188,735.029114 443.704834,732.217407 
	C436.732178,729.071289 430.037842,725.310364 423.206726,721.847900 
	C417.686432,719.049866 411.942108,716.761475 405.858795,715.625977 
	C394.461243,713.498596 387.250946,718.615173 385.370148,731.575989 
	C384.247009,739.315613 385.096252,747.175354 385.971497,754.954285 
	C387.090027,764.895264 380.570221,773.853699 371.098480,775.402893 
	C358.681854,777.433777 350.021973,768.350830 353.182861,756.189270 
	C354.861206,749.731873 356.477173,743.269043 357.115784,736.662415 
	C358.565460,721.664856 353.371857,706.979919 340.075287,699.388367 
	C334.439789,696.170898 328.154114,695.270081 321.777618,695.230530 
	C313.630035,695.179932 305.478577,695.252686 297.333313,695.455017 
	C287.609039,695.696594 281.350555,690.929382 277.472931,682.352844 
	C274.456665,675.681458 271.605682,668.914185 267.248474,662.943665 
	C257.047394,648.965576 243.535873,646.894104 229.614517,657.123230 
	C225.189713,660.374512 220.667740,663.493652 216.188828,666.671265 
	C210.436646,670.752136 204.460251,670.147156 198.772186,666.891235 
	C192.530518,663.318359 190.861862,657.325134 191.634323,650.547180 
	C192.341049,644.346008 195.801727,640.298401 201.630371,638.028442 
	C209.182022,635.087463 217.318695,633.328308 223.374207,627.281433 
	C227.956360,622.705811 231.720184,617.535828 232.568054,611.078125 
	C234.383408,597.251404 227.067459,592.549622 214.713455,590.305237 
	C205.640686,588.656921 196.432053,589.755432 187.335602,588.514404 
	C170.021957,586.152344 161.560913,573.750549 160.759720,557.988770 
	C160.311996,549.180481 160.677307,540.330872 160.676651,530.999817 
M363.645538,642.800598 
	C367.298065,640.625854 367.331848,637.168152 366.373657,633.769165 
	C365.685455,631.327881 363.526703,630.861511 360.540527,632.234924 
	C359.832916,632.554626 359.125305,632.874329 358.081726,632.530212 
	C357.054718,630.509460 358.358063,628.211975 356.802460,626.101501 
	C355.800659,632.048523 354.798889,637.995483 353.788452,643.993652 
	C360.848419,644.424500 360.848419,644.424500 363.003235,643.002441 
	C363.003235,643.002441 362.970032,643.029175 363.645538,642.800598 
M373.401550,633.259033 
	C370.070740,635.956970 369.055634,639.334290 371.719696,642.800781 
	C373.943054,645.693848 376.993683,645.408997 380.882294,642.997437 
	C377.073425,643.202209 372.980377,644.929626 372.742920,640.593567 
	C372.515289,636.437561 376.691071,638.582031 378.940216,638.046326 
	C380.354156,637.709534 382.107758,638.025269 382.473694,636.053284 
	C382.782257,634.390320 381.826721,633.148010 380.554016,632.280823 
	C378.203217,630.679138 375.927216,630.608032 374.007019,633.000549 
	C374.007019,633.000549 374.034515,632.980042 373.401550,633.259033 
M203.368408,441.873016 
	C199.210358,441.731934 195.052475,441.585571 190.894211,441.451050 
	C185.268158,441.268982 184.372971,442.083435 184.334778,447.517639 
	C184.311371,450.849335 184.469543,454.186249 184.333893,457.512177 
	C184.183151,461.208008 185.553085,463.255310 189.486816,463.092010 
	C192.570251,462.964020 194.140198,464.445190 194.139542,467.567902 
	C194.135147,488.226257 194.148392,508.884613 194.127167,529.542969 
	C194.124329,532.309692 193.058655,533.975464 189.855194,533.484436 
	C185.848862,532.870239 184.367447,535.180725 184.440979,538.747681 
	C184.526672,542.904724 184.818405,547.057617 185.029114,551.211914 
	C185.157135,553.735962 186.650772,554.640747 189.005554,554.635437 
	C199.667862,554.611572 210.330231,554.608704 220.992584,554.616089 
	C223.453384,554.617737 224.686020,553.481689 224.670471,550.978394 
	C224.642532,546.480469 224.650665,541.982239 224.658569,537.484131 
	C224.661911,535.574158 223.979385,533.984924 221.880936,534.128357 
	C217.083145,534.456360 216.624313,531.751465 216.608978,527.871582 
	C216.536591,509.555145 217.123642,491.233215 216.304840,472.920227 
	C216.290268,472.594482 216.826080,472.244171 217.139374,471.863708 
	C218.357315,472.509949 218.206711,473.585144 218.450943,474.498840 
	C225.103073,499.385345 231.857651,524.245117 238.345795,549.174194 
	C239.444458,553.395630 241.512375,554.890686 245.690720,554.717163 
	C251.345581,554.482300 257.022400,554.504395 262.679962,554.700745 
	C266.445709,554.831421 268.716766,553.420288 269.564270,549.728394 
	C270.307800,546.489014 270.948944,543.214478 271.909058,540.038269 
	C278.259369,519.029968 283.580383,497.749481 288.978210,476.486176 
	C289.477997,474.517395 288.907196,471.760773 291.477295,470.515015 
	C292.694763,471.338440 292.595703,472.260559 292.542786,473.298096 
	C291.576263,492.243622 290.610474,511.192047 291.760468,530.164551 
	C291.887421,532.259094 291.190277,533.535217 289.066925,533.356323 
	C284.521545,532.973328 283.185608,535.374634 283.301147,539.398438 
	C283.396759,542.727722 283.489258,546.072632 283.278931,549.391296 
	C283.029755,553.323242 284.734894,554.749695 288.555817,554.698181 
	C298.050446,554.569885 307.548035,554.670837 317.044373,554.652954 
	C333.960907,554.621155 331.510681,556.250000 331.608612,538.881714 
	C331.609528,538.715393 331.596313,538.548645 331.583008,538.382629 
	C331.321686,535.118164 330.011200,532.958374 326.280640,533.319824 
	C323.202271,533.618103 321.701263,532.474915 321.709015,529.117432 
	C321.757202,508.292450 321.695221,487.467102 321.623444,466.642059 
	C321.616974,464.764801 322.005890,462.810272 324.067993,463.103241 
	C331.554749,464.166931 331.113068,459.226166 331.044098,454.422424 
	C331.010620,452.090332 330.911835,449.755371 330.986755,447.426392 
	C331.106842,443.692780 329.454102,441.883118 325.648468,441.900085 
	C310.155396,441.969208 294.662048,442.010101 279.168945,441.979492 
	C276.019409,441.973267 274.219421,443.292297 273.420319,446.330841 
	C269.107666,462.729279 264.732330,479.111206 260.404388,495.505615 
	C259.842590,497.633728 260.545441,500.275818 257.664612,501.679016 
	C256.190613,499.799713 255.510376,497.673401 254.895432,495.447968 
	C250.380692,479.109680 245.736725,462.806763 241.295883,446.448639 
	C240.391434,443.117035 238.561066,442.031586 235.267593,441.830414 
	C224.941010,441.199677 214.631012,441.288849 203.368408,441.873016 
M794.536926,495.005066 
	C785.915527,483.829712 774.333374,482.343719 761.738464,485.583038 
	C746.533142,489.493774 731.402527,490.909363 715.867615,487.552063 
	C708.912964,486.049072 701.953491,484.352417 694.735596,484.024689 
	C683.313599,483.506073 675.196716,488.346222 669.960632,498.293884 
	C668.089417,501.848816 667.099854,505.720184 666.328918,509.664154 
	C661.676575,533.465149 669.912170,551.706299 693.414062,559.842651 
	C718.204590,568.425049 743.309631,568.967041 768.558777,562.392334 
	C781.000122,559.152588 792.135071,553.306213 797.758118,540.986023 
	C804.797852,525.561646 803.466980,510.267212 794.536926,495.005066 
M477.573547,469.498932 
	C477.710938,460.172180 477.541260,450.826538 478.114105,441.526611 
	C478.404510,436.811920 476.283783,435.511841 472.409180,435.447021 
	C466.413757,435.346680 460.415771,435.391357 454.418854,435.390747 
	C439.793182,435.389252 439.793213,435.392975 440.365845,450.278442 
	C440.378632,450.611359 440.387238,450.944427 440.394897,451.277496 
	C440.457977,454.023895 441.601990,455.858429 444.599457,455.611847 
	C447.614746,455.363770 448.340271,456.938019 448.336853,459.519531 
	C448.305664,483.009460 448.308411,506.499420 448.294983,529.989380 
	C448.294006,531.705383 448.237427,533.667114 446.001007,533.753235 
	C441.103943,533.941650 441.088196,537.184753 441.195923,540.728210 
	C441.292114,543.890869 441.332397,547.061829 441.214996,550.222412 
	C441.096832,553.402649 442.429504,554.720703 445.642517,554.692688 
	C456.637024,554.596924 467.632812,554.636230 478.628113,554.649231 
	C481.041840,554.652100 483.160797,553.958618 483.395996,551.309509 
	C483.807281,546.677124 484.024323,542.003296 483.172424,537.379395 
	C482.894196,535.869202 482.234802,534.813171 480.504456,534.184021 
	C476.339294,532.669800 474.916046,525.342041 478.429688,522.514282 
	C480.658783,520.720276 483.125336,516.358459 486.096680,518.647827 
	C490.693207,522.189453 493.939575,527.324158 496.630005,533.964294 
	C488.315613,532.896606 489.331543,538.048340 489.347595,542.545166 
	C489.355347,544.710938 489.514191,546.892395 489.311371,549.039062 
	C488.921997,553.160522 490.675323,554.737793 494.765442,554.674438 
	C504.092377,554.529846 513.423340,554.667297 522.752625,554.646362 
	C536.290771,554.615906 535.852661,556.745667 535.506836,540.670227 
	C535.430542,537.121887 534.753784,533.889282 529.958313,534.188293 
	C528.266663,534.293701 527.284485,532.989319 526.417542,531.743164 
	C520.237854,522.860779 514.079956,513.963135 507.898468,505.082001 
	C507.018158,503.817169 505.821289,502.297791 507.438995,501.153931 
	C511.932098,497.976837 515.512390,493.280487 522.102722,493.693756 
	C529.431580,494.153290 529.408264,493.800201 529.164062,486.663147 
	C529.090393,484.508789 529.331421,482.341949 529.461060,480.182770 
	C529.772461,474.996277 528.518188,473.499725 523.371704,473.436279 
	C515.042908,473.333588 506.711914,473.412720 498.382690,473.330353 
	C484.929047,473.197357 486.175110,472.876251 486.185181,485.448212 
	C486.190857,492.488220 486.201660,492.477509 493.222076,493.464966 
	C493.924927,493.563812 494.369385,494.071045 494.305969,495.564606 
	C488.993317,498.213562 484.651367,503.222107 477.918854,505.235840 
	C476.079742,493.309937 478.167633,481.881622 477.573547,469.498932 
M446.152374,609.569458 
	C446.147552,624.732788 446.003326,639.898132 446.227478,655.058044 
	C446.290314,659.309692 445.032684,661.450806 440.680359,661.139282 
	C437.153076,660.886780 435.943390,662.677002 435.987579,665.922424 
	C436.044312,670.086792 435.988007,674.252930 435.959473,678.418213 
	C435.939484,681.331177 437.379883,682.641235 440.270752,682.636536 
	C456.266998,682.610657 472.263336,682.620361 488.259644,682.622742 
	C491.121094,682.623108 492.577698,681.206665 492.617645,678.348389 
	C492.640930,676.682373 492.649109,675.016113 492.650391,673.349915 
	C492.659454,661.595581 492.660339,661.554321 481.203827,660.995972 
	C478.720032,660.875000 476.550354,660.272583 476.998596,657.424194 
	C477.738129,652.724609 476.685944,648.132446 476.718445,643.486206 
	C476.739655,640.454346 477.814087,639.429199 480.866943,639.501587 
	C487.688080,639.663391 494.519226,639.374939 501.342407,639.493225 
	C504.598206,639.549622 505.886230,638.222473 505.817352,635.063538 
	C505.722931,630.733154 505.609406,626.389832 505.838531,622.069824 
	C506.041046,618.250916 504.388763,617.169495 500.805023,617.277405 
	C494.312775,617.473083 487.809692,617.306335 481.311157,617.299744 
	C479.010651,617.297424 476.806519,617.136719 476.799408,614.033997 
	C476.784515,607.536865 476.781219,601.039307 476.839996,594.542603 
	C476.860077,592.320618 478.211517,590.888733 480.338226,591.300964 
	C484.399414,592.088196 488.293396,590.876343 492.270782,590.803467 
	C500.971832,590.644104 501.091461,590.578003 501.190552,599.342957 
	C501.232635,603.068359 502.408295,604.881897 506.406006,604.710449 
	C511.395538,604.496460 516.403564,604.572937 521.399292,604.697449 
	C524.264160,604.768921 525.887390,603.737488 525.884094,600.750610 
	C525.874329,591.923767 525.925049,583.095459 525.772705,574.270813 
	C525.715027,570.931458 523.895081,569.224426 520.303101,569.288879 
	C512.807190,569.423279 505.307159,569.323059 497.808807,569.320496 
	C478.979614,569.314148 460.149506,569.403564 441.321869,569.228882 
	C437.142914,569.190125 435.593506,570.665649 435.858063,574.751160 
	C436.116150,578.736450 435.875946,582.753174 436.112762,586.740723 
	C436.332428,590.438904 436.593964,594.289429 441.765717,594.577820 
	C443.124115,594.653687 443.371918,596.087585 444.025238,597.024109 
	C446.500458,600.572815 446.206268,604.601074 446.152374,609.569458 
M679.416077,444.837738 
	C675.794250,456.616394 674.312683,468.651886 674.404419,481.324310 
	C675.742004,481.100708 676.437561,481.146851 676.966003,480.871857 
	C685.424866,476.470337 694.501709,476.318695 703.242798,478.691101 
	C723.513489,484.192810 743.457642,484.437225 763.692017,478.432922 
	C770.508667,476.410187 777.994202,476.788422 784.818726,479.560516 
	C789.049622,481.279144 789.828003,479.431488 790.646057,475.876984 
	C794.530640,458.997620 789.218872,443.995026 781.365173,429.562408 
	C774.767822,417.438599 764.257141,411.033508 750.663452,409.055450 
	C741.866272,407.775360 733.107422,407.766541 724.294189,408.286591 
	C702.189148,409.590973 685.722778,422.777985 679.416077,444.837738 
M594.643616,473.597443 
	C592.630798,474.074219 591.425293,475.193939 591.429321,477.409821 
	C591.437195,481.738800 591.379883,486.067841 591.375305,490.396881 
	C591.373291,492.347626 592.205017,493.631378 594.330872,493.583710 
	C598.512329,493.490021 597.998169,495.732086 596.908997,498.467957 
	C595.001587,503.259369 593.200806,508.093231 591.364380,512.912781 
	C590.518311,515.133240 590.247192,517.658081 587.608215,520.091431 
	C583.900940,511.304596 580.470398,503.173615 576.768372,494.399200 
	C583.455750,494.525543 583.574707,490.409027 583.638367,486.268036 
	C583.676819,483.769989 583.693665,481.271454 583.701538,478.773102 
	C583.712402,475.342438 582.065063,473.435272 578.563538,473.424713 
	C566.404541,473.388123 554.245361,473.362762 542.086426,473.396759 
	C539.178101,473.404907 537.328125,474.791931 537.316040,477.936279 
	C537.300659,481.933655 537.329346,485.931213 537.336548,489.928680 
	C537.340332,491.990936 538.029541,493.727386 540.332703,493.751770 
	C544.043335,493.791077 545.420105,496.355072 546.783264,499.092133 
	C554.865112,515.319824 562.632690,531.716736 571.207886,547.679688 
	C574.485046,553.780212 573.621155,558.625977 570.423950,563.920898 
	C568.275024,567.479797 565.336365,568.631836 561.544983,566.908386 
	C558.870422,565.692566 556.331726,564.177856 553.697693,562.778137 
	C550.048218,566.677551 547.002014,570.612061 544.252808,574.776733 
	C540.621155,580.278259 541.131470,582.021118 547.136475,584.934448 
	C566.173767,594.170227 584.564697,587.607605 592.769287,568.013550 
	C602.401855,545.009399 611.453674,521.762024 620.762512,498.622162 
	C621.498535,496.792450 621.921021,494.228058 624.187561,494.115143 
	C629.164307,493.867310 629.048401,490.568085 629.058838,487.121918 
	C629.067322,484.291382 628.882507,481.438629 629.171326,478.635681 
	C629.593140,474.541992 627.641479,473.300995 623.929749,473.344025 
	C614.437012,473.454102 604.942688,473.436066 594.643616,473.597443 
M685.211914,682.643799 
	C695.161377,682.271790 695.160217,682.271790 695.003723,672.463440 
	C694.969177,670.297485 694.896057,668.130554 694.930176,665.965515 
	C694.977112,662.984009 693.921570,661.006348 690.592896,661.372925 
	C685.658875,661.916199 684.771484,659.271179 684.867737,655.055420 
	C685.080627,645.728577 685.005981,636.393860 684.963379,627.062744 
	C684.917786,617.087585 680.528137,609.358215 672.112305,604.208557 
	C653.880615,593.052612 635.219543,593.725281 616.417480,602.807129 
	C608.910767,606.433044 608.856873,606.621460 612.364807,613.823608 
	C613.093689,615.320129 613.919678,616.779724 614.519531,618.326721 
	C616.378113,623.120300 619.007507,624.206726 623.951782,621.747559 
	C631.388428,618.048828 639.363708,616.424194 647.661377,619.207764 
	C654.683350,621.563354 656.623108,625.259460 654.428162,632.920776 
	C647.969177,629.948792 641.214966,628.742737 634.111938,629.304626 
	C619.027893,630.497803 606.927673,642.158630 606.417114,656.543579 
	C606.018188,667.782104 610.926636,676.395447 621.045898,681.206543 
	C632.399536,686.604797 643.822510,687.191833 654.487244,678.963867 
	C656.106628,677.714417 657.097534,675.378052 659.642578,675.582703 
	C664.177490,681.757629 664.170715,681.851379 672.286133,682.437500 
	C676.266663,682.724915 680.277588,682.590027 685.211914,682.643799 
M528.346558,613.858032 
	C516.783508,629.371338 517.286133,655.389404 528.659729,669.446106 
	C544.929626,689.554321 577.452515,688.500122 596.851624,674.488892 
	C599.574646,672.522095 599.402649,670.611694 597.469543,668.269470 
	C595.139282,665.446167 592.789246,662.623291 590.688232,659.631470 
	C588.794434,656.934570 586.926819,656.244263 584.109314,658.383362 
	C581.007446,660.738220 577.262512,661.785767 573.538147,662.702393 
	C564.352722,664.963135 554.270081,661.415344 551.087341,654.891357 
	C548.834717,650.273926 549.628784,648.910828 554.724548,648.887878 
	C565.552795,648.839172 576.381836,648.908691 587.209656,648.817932 
	C602.394714,648.690674 600.661499,651.533081 600.662598,635.387146 
	C600.663879,617.606445 589.327271,603.839722 571.836731,600.263489 
	C555.199524,596.861816 540.427429,600.002563 528.346558,613.858032 
M719.371521,647.140625 
	C722.045227,648.027771 724.717651,648.918945 727.393005,649.801208 
	C732.443054,651.466675 737.519165,653.057678 742.535950,654.817749 
	C745.175598,655.743896 745.690674,657.981323 745.478210,660.514587 
	C745.266113,663.044556 743.704956,664.644470 741.453003,664.986633 
	C735.170593,665.940796 728.384460,666.050842 724.631958,660.260559 
	C720.831848,654.396790 715.933899,654.178711 710.164307,654.348633 
	C702.390259,654.577759 702.200500,654.621521 702.195618,662.119263 
	C702.194092,664.450317 702.148071,666.782410 702.199585,669.112305 
	C702.509033,683.114380 698.707275,682.730042 716.330444,682.675049 
	C719.763794,682.664368 721.152466,681.147766 721.543640,678.062378 
	C721.679321,676.992004 721.082153,675.660034 722.764221,674.846375 
	C732.807190,685.607971 745.087646,685.916809 757.975342,681.361633 
	C766.603149,678.312073 772.126953,671.908569 773.580750,662.818909 
	C775.197815,652.707764 771.119080,645.027893 762.235352,639.838318 
	C758.757141,637.806458 755.033997,636.427002 751.326660,634.942688 
	C745.466736,632.596497 739.119812,631.587769 733.569946,628.396362 
	C731.096436,626.973999 729.269104,625.242981 729.762512,622.056763 
	C730.256348,618.867432 732.685547,617.750183 735.319092,617.052429 
	C740.460205,615.690430 747.960693,618.303223 750.546326,623.266235 
	C752.643860,627.292664 755.343506,628.263916 759.354370,627.879700 
	C761.665710,627.658325 764.018738,627.698792 766.342407,627.821350 
	C769.492920,627.987549 770.950623,626.740967 770.845093,623.478027 
	C770.716064,619.486450 770.861755,615.486816 770.834534,611.490967 
	C770.755310,599.858826 771.985474,601.418335 760.755615,601.327209 
	C753.324402,601.266907 753.330017,601.318420 751.810669,608.140381 
	C751.761902,608.359192 751.307495,608.487732 751.003601,608.683167 
	C749.076050,608.256409 748.105713,606.566406 746.820007,605.339783 
	C736.519714,595.512329 710.083679,596.564026 702.928894,615.210144 
	C698.160767,627.636230 704.256409,640.395569 719.371521,647.140625 
M424.702179,463.500061 
	C424.702698,456.001709 424.580444,448.500488 424.754913,441.006195 
	C424.843567,437.198212 423.332458,435.404449 419.546539,435.409088 
	C410.882050,435.419708 402.217102,435.436005 393.553162,435.361084 
	C390.792938,435.337219 389.314850,436.250458 388.860931,439.228729 
	C388.201324,443.556458 388.388245,447.865845 388.401489,452.189575 
	C388.407349,454.107147 389.369965,455.820129 391.266022,455.555084 
	C396.551453,454.816284 396.372437,458.057281 396.375946,461.651794 
	C396.398071,484.309357 396.470917,506.967041 396.628387,529.624023 
	C396.645111,532.028442 396.045624,533.667114 393.534912,533.775940 
	C389.183350,533.964417 388.503571,536.888672 388.409271,540.279968 
	C388.321289,543.443787 388.407471,546.612305 388.333954,549.776794 
	C388.256378,553.116333 389.808777,554.660156 393.156158,554.648254 
	C405.319641,554.604919 417.483429,554.602417 429.647003,554.629944 
	C432.265625,554.635864 433.733215,553.694519 433.682037,550.846558 
	C433.604156,546.515625 433.627655,542.182251 433.661469,537.850220 
	C433.680786,535.377136 432.477234,533.932434 430.060669,534.113037 
	C425.381226,534.462769 424.623505,532.001953 424.649170,527.985291 
	C424.784271,506.824310 424.706390,485.661957 424.702179,463.500061 
M816.653137,650.467163 
	C816.653625,643.138306 816.872986,635.800659 816.577209,628.483765 
	C816.382935,623.678223 817.289246,620.780823 822.991150,621.550354 
	C825.073364,621.831360 827.277527,621.130371 829.432922,620.969055 
	C831.378479,620.823425 832.663696,620.000427 832.597046,617.924194 
	C832.432251,612.790710 834.324158,606.997009 831.777039,602.723755 
	C829.776245,599.366943 824.353882,601.658997 820.470215,601.391357 
	C817.745300,601.203613 816.597961,600.230652 816.645569,597.468445 
	C816.740295,591.973755 816.621704,586.475708 816.650024,580.979431 
	C816.666687,577.733093 815.012634,576.878113 812.134705,577.647034 
	C808.603760,578.590454 805.083923,579.575745 801.551086,580.512024 
	C788.441711,583.986084 788.428711,583.980713 787.753723,597.439331 
	C787.653625,599.435242 787.278198,601.504517 784.845093,601.164795 
	C777.949585,600.202087 777.550964,604.169006 778.122620,609.293030 
	C778.379700,611.597778 778.323730,613.960205 778.177734,616.281860 
	C777.960388,619.740479 779.462708,621.220215 782.878845,620.928162 
	C786.793152,620.593384 788.012024,622.267944 787.842285,626.272644 
	C787.285645,639.401367 786.720825,652.545410 788.173645,665.674500 
	C789.337769,676.194275 794.387329,681.846313 804.494812,684.516174 
	C811.355652,686.328430 818.074768,685.432983 824.729370,684.178162 
	C827.555847,683.645020 831.924194,683.420776 832.388733,679.714111 
	C833.073853,674.247437 832.565613,668.631165 832.565613,662.694092 
	C830.922119,663.109985 830.131165,663.287537 829.353210,663.510376 
	C819.393982,666.362549 816.670166,664.314331 816.652771,653.951355 
	C816.651367,653.118530 816.652405,652.285706 816.653137,650.467163 
M374.473846,513.078552 
	C374.457184,502.787354 374.264404,492.492371 374.485718,482.206299 
	C374.633331,475.346283 373.153931,473.392914 366.500671,473.371765 
	C360.676819,473.353241 354.852844,473.370605 349.028931,473.374481 
	C338.420105,473.381531 338.420654,473.382263 338.420532,483.736542 
	C338.420502,485.400482 338.445312,487.065247 338.402496,488.728180 
	C338.336121,491.305206 339.061310,493.388580 341.849609,494.045135 
	C344.437225,494.654480 345.278931,496.402008 345.279175,498.818939 
	C345.280212,509.301788 345.285370,519.784607 345.289886,530.267456 
	C345.290649,532.034180 345.055817,533.841553 342.882812,533.979797 
	C338.622711,534.250916 338.401978,537.147766 338.406555,540.319824 
	C338.410858,543.314941 338.506042,546.315918 338.351959,549.303589 
	C338.167664,552.878723 339.774780,554.630310 343.289551,554.634399 
	C354.438049,554.647400 365.586853,554.577576 376.734802,554.653992 
	C379.807648,554.675049 380.890564,553.200867 380.856812,550.381958 
	C380.807037,546.222717 380.768860,542.062195 380.812286,537.903198 
	C380.837402,535.496643 379.958221,534.048767 377.364899,534.117981 
	C374.725372,534.188538 374.540863,532.496338 374.560028,530.464722 
	C374.611908,524.974976 374.570801,519.484375 374.473846,513.078552 
M375.182343,454.465912 
	C376.552094,447.230927 374.255554,441.457428 368.483948,437.626282 
	C362.305634,433.525177 355.046661,433.638214 348.940948,437.930542 
	C341.959167,442.838867 339.996796,452.051636 344.862518,458.440552 
	C348.976654,463.842499 354.711029,466.512115 361.445160,465.511200 
	C367.601746,464.596161 372.705322,461.606842 375.182343,454.465912 
M824.038025,450.854309 
	C822.023254,444.811890 819.252869,439.160645 815.078308,434.306335 
	C808.847290,427.060699 800.886292,424.234650 791.464050,425.397705 
	C788.141968,425.807770 786.695129,427.076843 788.472839,430.693634 
	C790.074768,433.952637 790.934814,437.567352 792.326050,440.941040 
	C794.234802,445.569733 796.856567,449.679535 802.610596,449.617737 
	C808.989563,449.549316 815.186829,450.097046 821.153442,452.592407 
	C821.947815,452.924591 824.270264,454.712891 824.038025,450.854309 
M675.945740,436.554138 
	C677.109436,433.679260 679.107605,431.080566 678.962830,427.777649 
	C663.184631,421.748291 646.092346,436.058807 643.852051,455.499847 
	C649.537231,453.826324 654.929321,451.546967 660.531921,450.752411 
	C668.895142,449.566437 673.721069,445.235657 675.945740,436.554138 
M667.667175,471.534821 
	C667.750122,470.540527 667.772583,469.536865 667.925842,468.553497 
	C668.873779,462.470215 667.742798,460.679626 662.636658,460.258118 
	C655.069824,459.633545 651.542297,462.062622 651.347351,467.840363 
	C651.102295,475.104218 652.951599,482.029083 654.757507,488.929596 
	C655.599426,492.146606 657.458252,494.962860 660.983887,496.372253 
	C664.014954,494.149048 664.987488,490.935242 665.552979,487.696228 
	C666.437073,482.632721 666.963501,477.506744 667.667175,471.534821 
M414.010254,603.885742 
	C413.906128,607.125916 410.875702,605.622375 408.730988,607.034546 
	C411.634857,606.458984 414.783203,608.405090 415.499084,604.628052 
	C415.997925,601.996338 414.064636,600.627747 411.638855,600.505249 
	C408.077545,600.325317 405.738617,602.357178 404.331024,605.439087 
	C403.161224,608.000366 402.783173,610.778687 405.306122,612.680542 
	C408.063690,614.759277 411.002472,614.332581 413.701416,612.004822 
	C410.986053,612.800598 408.015411,614.127258 406.290070,610.871277 
	C404.900146,608.248291 405.182983,605.283264 407.426605,603.105286 
	C409.398590,601.191040 411.720215,600.597290 414.010254,603.885742 
M331.344116,640.169617 
	C332.043304,643.291138 333.804077,644.921021 337.168762,644.374207 
	C335.216736,643.307922 332.824677,642.195496 333.462463,639.688477 
	C334.094971,637.202271 336.765320,638.198059 338.643097,637.991455 
	C338.807892,637.973267 338.977051,637.996399 339.142395,637.981018 
	C341.254974,637.785522 343.955505,638.135254 343.560516,634.787720 
	C343.186066,631.614014 340.731415,630.673767 338.027252,631.252136 
	C333.790161,632.158508 331.545044,635.045532 331.344116,640.169617 
M374.666107,613.065979 
	C378.617188,609.986145 376.727722,605.854553 376.888672,602.080627 
	C377.055267,604.927063 374.082062,606.745117 374.469208,609.952942 
	C374.674072,611.650452 371.472229,613.480225 369.426392,612.713501 
	C366.456177,611.600159 369.177490,609.669434 369.693451,608.003418 
	C367.549072,608.554260 365.995361,609.526550 366.587769,611.819641 
	C367.203522,614.203247 369.181793,613.967651 371.051788,613.609131 
	C372.021790,613.423157 372.981964,613.185974 374.666107,613.065979 
M402.764496,629.060913 
	C400.597565,630.938416 400.548279,630.931885 399.460114,639.163879 
	C399.243866,640.799866 398.437500,642.821777 401.120880,644.181458 
	C400.974731,639.496765 400.291229,634.814331 404.599915,631.879944 
	C404.035736,631.091309 403.470306,630.300842 402.764496,629.060913 
M306.592133,641.419495 
	C307.414185,643.705322 307.414185,643.705322 309.660309,644.065613 
	C307.033875,640.401672 307.890594,635.265137 311.995026,631.479431 
	C310.300476,631.288879 310.368286,629.630554 309.414185,628.808228 
	C305.278748,632.097290 308.654602,636.985046 306.592133,641.419495 
M316.349396,636.625488 
	C316.328796,638.906067 314.573029,641.124573 316.062958,644.294189 
	C318.582520,637.744263 318.783569,631.626770 319.301727,625.552185 
	C317.304749,628.695374 317.485626,632.420593 316.349396,636.625488 
M391.793671,637.719177 
	C390.298584,636.795105 388.803497,635.871033 387.111359,634.825195 
	C387.452759,638.167847 390.740540,637.914124 391.994812,639.755493 
	C393.631256,642.157959 391.304657,643.613831 385.203369,643.496399 
	C388.887909,645.458984 391.585114,644.829285 393.765015,642.433533 
	C395.515442,640.509888 394.089447,639.139587 391.793671,637.719177 
M326.194519,643.356567 
	C327.387939,641.122803 327.622650,638.664612 327.860077,636.208984 
	C328.266785,632.001770 326.336334,630.748840 322.349823,631.909851 
	C326.480774,632.008423 326.313995,634.785706 326.185333,637.590149 
	C326.096649,639.523682 324.697510,641.336304 326.194519,643.356567 
M396.821381,611.357422 
	C396.014709,608.149414 398.054291,604.968933 397.203735,601.738586 
	C396.051453,604.382446 395.030426,607.014465 394.690918,609.731628 
	C394.233063,613.396301 396.326324,614.021729 399.351807,612.858337 
	C398.615723,612.549744 397.879608,612.241150 396.821381,611.357422 
M296.247192,611.142822 
	C295.230927,608.716736 297.268127,606.355286 296.441742,603.830994 
	C292.894257,612.399780 294.303436,614.494690 303.043793,613.436768 
	C300.798431,612.846558 298.762512,612.311401 296.247192,611.142822 
M325.513245,605.742920 
	C322.252594,611.249329 322.465851,612.462708 327.468536,613.829529 
	C325.000732,611.434631 325.881958,608.759094 325.513245,605.742920 
M360.058990,611.958862 
	C358.130920,609.466675 360.897003,607.036865 360.018066,603.505310 
	C358.498260,607.011047 357.568878,609.654907 358.778015,612.525269 
	C359.211823,613.554993 360.287567,614.276794 361.523376,613.204163 
	C361.198853,612.890320 360.874359,612.576477 360.058990,611.958862 
M308.889038,611.811462 
	C310.324341,613.258850 311.944763,614.165405 315.054932,613.448486 
	C310.204285,612.703064 308.649780,610.152527 309.478424,605.594849 
	C307.364441,607.883301 307.709320,609.557251 308.889038,611.811462 
z"/>
<path fill="#000000" opacity="1.000000" stroke="none" 
	d="
M416.258575,266.252869 
	C421.957031,287.508789 406.741608,303.755005 385.877533,299.179230 
	C373.770874,296.524078 365.335480,283.486389 367.657196,271.018097 
	C369.983887,258.523071 382.388031,249.113922 394.289032,250.203125 
	C404.828613,251.167725 411.834839,256.503845 416.258575,266.252869 
z"/>
<path fill="#000000" opacity="1.000000" stroke="none" 
	d="
M704.158386,731.684326 
	C702.319214,739.734375 697.587646,744.949402 690.126770,746.844177 
	C683.788391,748.453857 677.507141,747.356628 672.493591,742.556580 
	C666.606079,736.919922 665.742493,730.348267 668.959412,722.968079 
	C671.466736,717.215942 677.214233,713.706299 684.708801,713.684143 
	C695.997375,713.650818 703.960510,720.837341 704.158386,731.684326 
z"/>
<path fill="#000000" opacity="1.000000" stroke="none" 
	d="
M270.514893,710.279663 
	C278.289551,706.814453 285.731995,708.276550 291.801514,714.183594 
	C296.132874,718.398987 297.378601,724.648193 295.008514,730.271423 
	C292.100159,737.171753 286.230774,740.725586 278.330963,740.369507 
	C271.433350,740.058594 266.356873,736.055237 264.306854,728.967651 
	C262.617462,723.126770 263.276123,713.953857 270.514893,710.279663 
z"/>
<path fill="#000000" opacity="1.000000" stroke="none" 
	d="
M233.209381,373.405273 
	C243.834305,378.358795 244.524948,389.293976 239.933807,396.185699 
	C235.472641,402.882324 221.759796,404.437347 215.660126,399.104004 
	C210.493301,394.586182 208.897079,386.721191 211.877777,380.466614 
	C214.681091,374.584198 222.499039,370.714905 229.059052,372.030914 
	C230.353424,372.290588 231.593445,372.821106 233.209381,373.405273 
z"/>
<path fill="#000000" opacity="1.000000" stroke="none" 
	d="
M489.871582,332.697083 
	C490.157898,325.636200 491.183990,324.537659 497.591461,323.969940 
	C504.039276,323.398621 504.868103,322.450531 503.922363,316.265900 
	C507.944794,314.264984 512.132568,314.033234 516.145386,316.151794 
	C519.871704,318.119141 520.256287,321.901825 520.187073,325.680298 
	C520.018311,334.894531 514.107910,342.754425 506.051147,344.499664 
	C497.940094,346.256683 492.586548,342.479614 489.871582,332.697083 
z"/>
<path fill="#000000" opacity="1.000000" stroke="none" 
	d="
M152.462219,586.957275 
	C150.597626,587.248596 149.114594,587.488953 147.623856,587.555054 
	C141.261246,587.836975 135.966797,584.147461 134.864822,578.721130 
	C133.457611,571.791809 136.770889,565.198853 142.635254,563.258911 
	C148.545837,561.303772 154.877899,563.991150 157.774094,569.683899 
	C160.816284,575.663635 159.320221,582.438965 154.140488,586.088135 
	C153.735016,586.373840 153.274933,586.581909 152.462219,586.957275 
z"/>
<path fill="#000000" opacity="1.000000" stroke="none" 
	d="
M364.027100,314.622803 
	C370.020508,312.997192 374.745758,314.589661 377.990082,319.280731 
	C380.426575,322.803711 380.220642,326.885376 378.106354,330.607605 
	C375.401093,335.370178 370.915466,337.306091 365.411621,336.245880 
	C360.671600,335.332764 357.690613,332.406189 356.808228,327.693939 
	C355.667603,321.602356 357.599457,318.170319 364.027100,314.622803 
z"/>
<path fill="#000000" opacity="1.000000" stroke="none" 
	d="
M425.273499,746.071045 
	C432.394684,744.911499 436.376831,746.639709 439.006714,751.684387 
	C440.969910,755.450317 440.879547,759.184937 438.056152,762.328003 
	C435.265625,765.434448 431.659180,766.920044 427.324829,765.710266 
	C423.158386,764.547241 420.963959,761.857788 420.563354,757.554077 
	C420.141754,753.024658 420.707153,748.935791 425.273499,746.071045 
z"/>
<path fill="#000000" opacity="1.000000" stroke="none" 
	d="
M259.648773,690.824219 
	C257.870361,697.294495 252.838501,700.289978 247.711929,698.287720 
	C242.583511,696.284668 239.993988,689.584717 242.371979,684.494629 
	C243.946396,681.124512 246.856018,680.405396 250.212555,680.417053 
	C254.339035,680.431335 257.165344,682.441284 258.789124,686.079468 
	C259.380310,687.403992 259.404785,688.981567 259.648773,690.824219 
z"/>
<path fill="#000000" opacity="1.000000" stroke="none" 
	d="
M441.081299,314.426147 
	C440.940857,314.983551 440.893677,315.143280 440.829102,315.295654 
	C439.873810,317.548767 438.491577,319.512360 435.839783,319.540924 
	C432.421692,319.577789 434.815186,315.726532 432.515869,314.489777 
	C432.194489,314.597595 431.443665,314.626068 431.067780,315.015991 
	C429.754700,316.378174 428.863312,318.853363 426.378723,317.189911 
	C424.274628,315.781250 423.725555,313.510620 424.160583,311.020813 
	C425.027557,306.058746 429.263275,302.600403 433.985107,303.019287 
	C438.958923,303.460571 441.406586,307.211761 441.081299,314.426147 
z"/>
<path fill="#000000" opacity="1.000000" stroke="none" 
	d="
M358.417664,633.193970 
	C359.125305,632.874329 359.832916,632.554626 361.205078,632.088989 
	C365.519104,632.677917 366.004791,635.201660 365.160095,638.191345 
	C364.684174,639.875732 363.716248,641.421143 362.970032,643.029175 
	C362.970032,643.029175 363.003235,643.002441 362.671692,643.055847 
	C356.046478,643.615417 354.368286,641.344666 356.954254,635.782654 
	C357.370819,634.886658 357.926361,634.055237 358.417664,633.193970 
z"/>
<path fill="#000000" opacity="1.000000" stroke="none" 
	d="
M702.799194,538.715576 
	C708.165833,544.779236 715.270691,546.618042 722.536560,547.671753 
	C726.612549,548.262817 730.860718,548.094421 734.993408,547.776123 
	C743.444031,547.125244 747.719177,540.015137 744.379944,532.347595 
	C743.244690,529.740784 743.148254,527.452454 745.459045,525.619141 
	C747.701721,523.839905 749.142883,525.826843 750.540710,527.138611 
	C752.277771,528.768738 753.954529,528.732422 755.981201,527.681519 
	C758.594666,526.326355 761.188782,526.659058 763.395996,528.647278 
	C766.538330,531.477844 770.307434,532.469360 774.388611,532.747131 
	C776.166626,532.868225 778.483459,532.636108 778.655579,535.130188 
	C778.813965,537.425720 776.683655,537.946716 774.904846,538.407166 
	C773.222595,538.842529 771.888611,539.712341 770.768250,541.024658 
	C763.937195,549.026245 755.021912,553.347107 744.796448,554.509460 
	C728.230957,556.392456 712.138306,555.241028 698.388855,544.207092 
	C695.817200,542.143372 693.790527,539.401367 690.114258,539.078674 
	C688.862244,538.968811 687.999329,537.999207 688.248901,536.597351 
	C688.443542,535.504089 689.291321,534.968506 690.373108,534.804871 
	C693.821350,534.283630 697.256104,533.445435 700.719360,533.305481 
	C705.562195,533.109741 703.218811,536.224487 702.799194,538.715576 
M760.095703,533.259338 
	C757.716919,531.309998 755.175049,530.012268 752.923584,533.190796 
	C750.708252,536.318359 750.350708,540.260010 753.199097,542.687805 
	C756.478760,545.483154 759.111755,542.052368 761.558899,539.991760 
	C764.607056,537.425171 762.958679,535.505859 760.095703,533.259338 
z"/>
<path fill="#000000" opacity="1.000000" stroke="none" 
	d="
M763.757324,500.774719 
	C767.836243,503.093658 768.528320,505.963928 766.127502,509.776123 
	C763.800842,513.470825 760.753418,516.504211 756.866455,518.541382 
	C755.008789,519.514954 752.935425,520.781555 750.893738,518.970154 
	C748.781738,517.096497 748.496948,514.605042 749.512817,512.138367 
	C752.078003,505.910065 756.557617,501.884918 763.757324,500.774719 
z"/>
<path fill="#000000" opacity="1.000000" stroke="none" 
	d="
M701.175537,512.772156 
	C700.817627,512.381714 700.690552,512.269165 700.599976,512.132446 
	C698.442749,508.876862 695.176086,505.662476 698.596802,501.558044 
	C700.746460,498.978760 705.960266,500.378082 710.065186,504.226562 
	C712.680908,506.678864 714.435730,509.692200 715.026062,513.165710 
	C715.773315,517.562256 712.796143,519.864563 708.684998,518.161072 
	C705.919189,517.015137 703.561096,515.148682 701.175537,512.772156 
z"/>
<path fill="#000000" opacity="1.000000" stroke="none" 
	d="
M761.235840,438.383636 
	C768.583252,442.077362 771.758484,449.678864 769.139465,456.910004 
	C767.832581,460.518188 765.488647,463.431305 761.510315,464.067963 
	C757.445007,464.718506 753.983032,463.139313 751.452271,459.850677 
	C747.968506,455.323578 746.810913,450.314697 748.898193,444.857910 
	C750.805359,439.872162 754.738281,437.779419 761.235840,438.383636 
z"/>
<path fill="#000000" opacity="1.000000" stroke="none" 
	d="
M698.151367,446.765442 
	C701.113525,439.499084 704.811157,437.148651 710.294250,438.740295 
	C716.001587,440.397003 719.811157,447.997375 718.292664,454.697479 
	C716.898315,460.849518 712.512817,464.666626 707.283691,464.279663 
	C702.451660,463.922058 698.052124,458.877472 697.735046,453.127625 
	C697.625977,451.150055 697.907349,449.150940 698.151367,446.765442 
z"/>
<path fill="#000000" opacity="1.000000" stroke="none" 
	d="
M698.164551,427.197632 
	C701.875793,423.249847 706.238892,422.887390 710.840210,423.688446 
	C713.579834,424.165405 715.503662,425.799164 715.418335,428.723328 
	C715.319458,432.106354 712.467468,431.184692 710.500366,431.314423 
	C707.101929,431.538574 703.991943,432.437683 701.142578,434.346771 
	C699.256104,435.610748 696.995972,437.646149 695.042542,435.124298 
	C693.398071,433.001190 695.054199,430.739563 696.512268,428.867981 
	C696.917542,428.347717 697.435791,427.915527 698.164551,427.197632 
z"/>
<path fill="#000000" opacity="1.000000" stroke="none" 
	d="
M759.335815,431.406555 
	C757.430786,431.338837 755.945740,431.336090 754.461609,431.300323 
	C752.839722,431.261200 750.917969,431.603271 750.313049,429.526398 
	C749.793091,427.741119 750.962524,426.351044 752.112549,425.155365 
	C754.744202,422.419220 758.054077,422.457642 761.328674,423.402863 
	C765.076965,424.484772 768.451416,426.359528 769.695435,430.399231 
	C770.588562,433.299286 768.604309,433.979980 766.345520,433.533356 
	C764.100037,433.089386 761.948792,432.168640 759.335815,431.406555 
z"/>
<path fill="#000000" opacity="1.000000" stroke="none" 
	d="
M637.873779,649.695190 
	C642.213318,646.899231 646.363098,647.248352 650.618774,648.820679 
	C654.884399,650.396667 655.963196,653.634216 655.067200,657.633606 
	C654.008728,662.357544 650.279846,664.344238 645.969482,664.993225 
	C642.014709,665.588562 638.136597,664.810608 636.046448,660.880432 
	C633.993164,657.019592 634.110779,653.191040 637.873779,649.695190 
z"/>
<path fill="#000000" opacity="1.000000" stroke="none" 
	d="
M561.962402,619.355713 
	C570.019653,620.493042 573.190002,622.973511 574.222717,628.606262 
	C574.764038,631.559326 574.217773,633.430420 570.581177,633.328064 
	C564.948486,633.169556 559.307983,633.245117 553.671265,633.285583 
	C550.136597,633.310913 549.380127,631.713806 550.457947,628.536682 
	C552.291016,623.133545 555.791504,619.894165 561.962402,619.355713 
z"/>
<path fill="#000000" opacity="1.000000" stroke="none" 
	d="
M373.995514,633.013062 
	C374.779663,632.828979 375.567230,632.586304 376.372559,632.444214 
	C378.633087,632.045471 380.448730,632.697144 380.654144,635.191223 
	C380.839294,637.438904 378.847076,637.219299 377.475464,637.130859 
	C375.412811,636.997742 372.232239,637.751038 373.890137,633.319824 
	C374.034515,632.980042 374.007019,633.000549 373.995514,633.013062 
z"/>
<path fill="#000000" opacity="1.000000" stroke="none" 
	d="
M338.971375,632.416870 
	C341.044891,632.932861 343.041412,634.017700 341.616425,635.719727 
	C339.571533,638.162231 336.732147,637.305969 334.106781,636.100342 
	C334.794128,633.337158 336.535431,632.648010 338.971375,632.416870 
z"/>
</svg>